<?xml version="1.0" standalone="no"?>
<!DOCTYPE svg PUBLIC "-//W3C//DTD SVG 20010904//EN"
 "http://www.w3.org/TR/2001/REC-SVG-20010904/DTD/svg10.dtd">
<svg version="1.0" xmlns="http://www.w3.org/2000/svg"
 width="225.000000pt" height="225.000000pt" viewBox="0 0 225.000000 225.000000"
 preserveAspectRatio="xMidYMid meet">
<metadata>
Created by potrace 1.14, written by Peter Selinger 2001-2017
</metadata>
<g transform="translate(0.000000,225.000000) scale(0.100000,-0.100000)"
fill="#000000" stroke="none">
<path d="M1200 2179 c-12 -9 -11 -10 5 -4 33 10 6 -10 -63 -49 -66 -37 -91
-46 -58 -21 11 8 15 15 9 15 -14 0 -35 -25 -27 -33 3 -3 -9 -13 -27 -22 -28
-15 -31 -15 -26 -1 5 13 3 14 -13 4 -10 -7 -17 -14 -15 -17 11 -10 -18 -28
-37 -23 -13 3 -19 1 -15 -5 4 -6 -1 -17 -10 -24 -14 -12 -16 -12 -9 0 6 9 5
12 -3 10 -7 -3 -12 -8 -11 -13 2 -10 -60 -49 -67 -42 -3 2 8 11 24 20 37 20
21 21 -17 1 -17 -9 -30 -23 -30 -33 0 -11 -3 -13 -8 -5 -5 8 -13 9 -22 3 -11
-7 -12 -10 -2 -10 7 0 10 -5 6 -11 -4 -7 -9 -8 -17 0 -7 7 -17 4 -31 -12 -33
-34 -62 -56 -51 -38 6 11 4 13 -9 8 -10 -4 -21 -7 -24 -7 -4 0 -1 -4 7 -9 11
-7 9 -11 -9 -21 -15 -8 -20 -8 -16 -1 4 6 2 11 -3 11 -6 0 -11 -6 -11 -14 0
-9 -8 -13 -22 -10 -13 2 -17 2 -10 -2 6 -3 9 -10 6 -15 -4 -6 -11 -6 -19 1 -9
8 -15 8 -20 0 -3 -5 -3 -11 2 -11 4 -1 -5 -4 -22 -8 -16 -4 -29 -12 -28 -19 2
-6 -7 -16 -18 -23 -15 -8 -19 -8 -15 0 4 7 1 9 -8 5 -9 -3 -14 -11 -13 -16 1
-6 -4 -13 -12 -16 -8 -3 -11 0 -7 7 5 7 1 8 -11 4 -29 -11 -88 -54 -88 -64 0
-15 -255 -158 -271 -152 -8 3 -26 -5 -40 -18 -21 -19 -24 -31 -23 -74 3 -62
14 -95 33 -95 7 0 17 -7 20 -16 3 -8 2 -12 -4 -9 -6 3 -10 1 -10 -4 0 -6 5
-11 10 -11 6 0 10 -7 10 -15 0 -8 6 -14 13 -12 6 1 12 -6 12 -15 0 -9 4 -20 9
-25 5 -5 6 -2 1 6 -6 10 -4 12 4 7 6 -4 9 -16 6 -27 -4 -13 -2 -19 6 -17 6 2
13 -8 14 -21 1 -14 15 -35 31 -48 16 -12 23 -23 16 -23 -7 0 -10 -5 -7 -10 4
-6 11 -7 17 -4 6 4 9 1 6 -6 -2 -8 4 -22 15 -33 10 -10 16 -25 13 -33 -3 -8
-2 -13 3 -10 13 8 45 -45 43 -71 -1 -15 4 -23 14 -23 10 0 14 -5 10 -16 -3 -8
-2 -13 2 -11 4 3 15 -5 24 -18 15 -19 15 -24 3 -29 -9 -3 -12 0 -8 10 3 7 0
14 -6 14 -6 0 -11 -7 -11 -15 0 -8 -5 -15 -11 -15 -5 0 -8 4 -4 9 3 5 1 12 -5
16 -5 3 -10 0 -10 -7 0 -10 -28 -12 -130 -10 l-130 3 0 -71 c0 -39 5 -80 10
-91 7 -12 7 -19 1 -19 -6 0 -8 -7 -5 -15 4 -8 12 -15 20 -15 15 0 36 -34 39
-65 4 -35 5 -36 16 -30 6 4 9 0 7 -11 -2 -11 2 -18 9 -17 6 1 14 -4 17 -13 4
-10 2 -13 -7 -8 -6 4 0 -4 15 -19 28 -26 37 -44 17 -31 -7 4 -10 1 -7 -7 3 -8
10 -13 16 -12 6 2 9 -3 6 -10 -3 -10 6 -12 33 -10 30 2 34 1 18 -6 -13 -6 46
-9 170 -8 l190 1 -165 6 -165 6 171 2 c151 2 173 0 185 -15 12 -14 12 -16 0
-8 -11 6 -13 4 -8 -9 4 -10 7 -22 7 -27 0 -6 8 -9 18 -7 12 2 17 -3 16 -19 0
-12 3 -20 7 -17 5 2 13 -4 18 -15 14 -26 14 -34 -1 -25 -8 4 -10 3 -5 -2 5 -5
14 -9 20 -9 7 0 11 -8 11 -18 -1 -9 2 -14 7 -12 4 3 13 -4 19 -15 6 -11 16
-17 22 -14 7 5 8 2 3 -6 -5 -9 -3 -11 6 -6 8 3 22 9 32 12 9 4 17 10 17 16 0
5 -9 4 -20 -2 -11 -6 -20 -9 -20 -6 0 10 199 116 212 114 7 -2 12 2 11 9 -2 8
4 10 14 6 12 -5 14 -3 8 7 -6 10 -3 12 13 8 13 -4 20 -2 19 5 -1 6 8 12 21 13
12 1 26 5 30 9 4 5 -1 5 -10 2 -28 -10 -21 7 9 21 21 9 164 12 605 12 l578 0
0 58 c0 32 -5 63 -12 70 -9 9 -9 12 1 12 7 0 9 5 6 10 -4 6 -10 8 -15 5 -4 -3
-6 5 -2 17 3 14 1 19 -6 14 -9 -6 -62 61 -62 79 0 2 -14 27 -31 55 -17 28 -28
57 -25 65 3 8 0 14 -7 12 -7 -1 -11 4 -10 11 2 6 -2 12 -8 12 -6 0 -9 7 -5 15
6 18 5 18 -30 5 -19 -7 -30 -7 -40 1 -8 7 -21 8 -31 3 -10 -4 -42 -9 -71 -9
-47 -1 -52 0 -36 12 10 7 35 18 56 24 25 6 38 16 39 27 0 9 3 12 5 5 3 -7 12
-9 20 -6 13 5 13 7 2 14 -10 7 -11 9 0 9 7 0 10 5 7 10 -4 6 -10 8 -14 6 -4
-3 -7 5 -7 17 1 12 -5 22 -12 22 -7 0 -22 16 -33 35 l-21 35 21 -25 c11 -14
21 -20 21 -13 0 7 -17 29 -37 50 -21 20 -32 33 -24 29 10 -7 11 -4 1 13 -6 13
-16 19 -23 14 -7 -4 -7 0 2 10 7 9 11 18 7 18 -3 1 -10 2 -15 3 -15 2 -26 16
-13 16 9 0 9 6 0 25 -7 16 -14 21 -18 14 -6 -8 -9 -8 -14 0 -4 6 -4 16 -1 21
9 15 -34 82 -48 73 -7 -4 -8 0 -4 11 4 9 3 15 -2 11 -5 -3 -28 27 -50 66 -41
71 -53 100 -26 65 19 -26 19 -17 -1 22 -16 33 -31 45 -20 16 4 -9 2 -13 -5 -8
-6 3 -9 17 -6 31 3 17 1 21 -6 14 -7 -7 -19 4 -39 39 -15 27 -28 55 -28 62 1
22 -54 128 -69 133 -10 4 -9 -1 4 -15 10 -11 16 -23 13 -25 -3 -3 -15 9 -26
27 -15 23 -17 35 -10 39 8 5 3 21 -16 49 -16 24 -31 38 -38 34 -8 -5 -9 -1 -4
11 5 13 -2 26 -25 47 -21 19 -29 34 -24 46 3 9 3 13 -1 10 -8 -8 -34 23 -57
69 -10 19 -13 33 -7 35 7 2 4 11 -5 23 -15 20 -15 20 -9 0 7 -20 7 -20 -9 0
-11 15 -12 22 -4 27 7 4 9 8 5 9 -5 1 -12 3 -18 4 -5 1 -13 3 -17 4 -5 1 -2 5
6 10 7 5 10 14 6 21 -6 9 -9 9 -16 -1 -6 -10 -9 -11 -9 -1 0 15 -30 16 -50 1z
m-1 -178 c-6 -29 -8 -55 -5 -58 3 -4 6 2 6 12 0 13 3 15 13 7 10 -8 13 -6 13
8 0 10 -4 16 -8 14 -4 -3 -8 -1 -8 5 0 5 5 13 10 16 6 4 8 11 5 16 -4 5 -4 9
-1 9 9 0 36 -63 36 -84 0 -17 2 -18 10 -6 9 13 10 13 11 0 1 -8 1 -18 0 -22 0
-4 10 -18 23 -31 27 -27 71 -107 59 -107 -4 0 3 -7 15 -16 16 -11 21 -22 16
-36 -4 -13 -2 -18 4 -14 5 3 13 -1 16 -10 7 -18 -32 -56 -51 -49 -15 5 -18
-11 -4 -19 5 -4 23 5 39 19 39 32 46 32 39 -5 -5 -22 -3 -28 7 -24 18 7 30
-12 15 -22 -8 -5 -9 -3 -4 7 5 8 5 11 1 7 -15 -12 -11 -23 8 -23 12 0 20 -8
22 -22 3 -17 -1 -23 -14 -23 -9 0 -30 -13 -47 -28 -33 -30 -44 -55 -20 -46 8
4 12 10 9 16 -3 5 0 8 7 7 8 -2 28 5 44 14 l30 17 -30 -6 c-38 -8 -31 -1 13
14 19 6 30 7 27 2 -4 -6 1 -10 9 -10 25 0 19 -26 -10 -45 -21 -13 -24 -19 -13
-26 10 -6 7 -9 -11 -10 -14 -1 -32 0 -40 1 -8 1 -12 -1 -8 -6 4 -4 0 -13 -10
-20 -9 -8 12 -2 47 11 36 14 66 25 68 25 2 0 3 5 3 11 0 8 -5 7 -15 -1 -9 -7
-18 -11 -20 -8 -3 3 2 11 11 19 14 11 19 10 35 -11 10 -14 17 -31 14 -38 -3
-7 -1 -11 3 -8 4 3 20 -18 35 -45 14 -27 22 -47 17 -44 -6 3 -10 1 -10 -4 0
-6 9 -11 20 -11 11 0 20 -7 20 -15 0 -8 -4 -15 -9 -15 -13 0 0 -48 15 -54 16
-6 19 10 4 19 -5 3 -10 12 -10 18 0 15 47 -42 53 -65 4 -12 -1 -18 -11 -18
-13 0 -14 -2 -4 -9 23 -14 -13 -22 -76 -16 l-57 4 45 -9 c25 -6 59 -9 77 -6
18 2 35 -1 38 -8 3 -6 3 0 0 14 -4 24 -4 24 19 -5 14 -17 22 -32 20 -34 -2 -2
-28 -3 -56 -3 -32 1 -48 -1 -40 -6 7 -5 24 -7 38 -4 17 3 26 -1 31 -14 10 -26
33 -48 66 -62 26 -11 40 -38 15 -29 -7 2 -19 -3 -26 -12 -12 -14 -13 -14 -8 2
3 9 1 17 -4 17 -6 0 -10 -6 -10 -14 0 -21 -55 -30 -80 -13 -11 7 -17 16 -15
19 3 3 -7 3 -22 1 -22 -4 -25 -2 -13 7 12 8 8 9 -15 4 -42 -10 -42 -12 1 -20
22 -4 48 -13 59 -19 37 -23 62 -26 79 -10 9 9 16 12 16 7 0 -15 35 -20 47 -7
7 7 9 16 5 21 -4 4 -2 4 5 0 7 -4 9 -14 6 -23 -5 -12 -3 -14 8 -9 8 4 5 1 -5
-8 -10 -8 -23 -13 -28 -10 -5 3 -7 0 -6 -8 2 -7 -7 -14 -19 -16 -13 -2 -23 -7
-23 -11 0 -4 -11 -13 -25 -19 -15 -7 -25 -8 -25 -2 0 6 8 10 18 11 9 0 -1 7
-23 16 -22 9 -43 21 -46 26 -8 12 -43 5 -41 -8 1 -5 16 -13 34 -16 22 -4 26
-7 11 -8 -26 -1 -30 -16 -7 -25 8 -3 12 -2 9 4 -3 5 3 8 13 7 13 -1 18 -7 14
-19 -2 -10 -8 -21 -13 -24 -19 -11 -85 -10 -104 2 -26 19 -41 18 -25 -1 11
-13 6 -15 -33 -15 -25 0 -49 5 -53 11 -4 8 -9 8 -17 0 -17 -17 -80 -12 -107 8
l-24 19 36 40 c20 22 38 39 40 37 2 -2 4 18 5 43 4 84 12 112 33 112 11 0 20
-5 20 -11 0 -7 9 -9 24 -5 13 3 45 -2 72 -10 59 -20 84 -39 37 -29 -20 4 -34
2 -38 -6 -8 -12 16 -33 25 -20 11 17 53 18 93 3 23 -9 45 -20 48 -25 3 -4 12
-1 19 8 11 13 8 15 -19 15 -29 0 -32 3 -29 27 2 19 -2 28 -12 29 -8 0 -31 2
-50 3 -32 1 -33 3 -17 15 16 12 16 14 2 20 -9 3 -25 1 -35 -4 -21 -11 -53 -3
-44 12 4 6 -2 8 -16 3 -20 -6 -22 -4 -18 32 3 40 2 41 -51 29 -13 -3 -26 -8
-30 -12 -3 -4 3 -4 14 0 15 5 17 4 9 -4 -8 -8 -17 -9 -30 -1 -11 6 -64 24
-120 42 -91 28 -101 33 -97 52 4 20 -8 27 -99 62 -107 41 -156 80 -150 117 2
10 -4 21 -14 25 -15 6 -15 7 4 14 16 6 22 20 27 71 4 35 6 68 5 73 -1 6 -2 23
-1 39 1 22 4 26 14 17 24 -19 47 9 51 61 2 26 0 45 -5 43 -4 -3 -10 -1 -14 5
-3 5 -1 10 5 10 6 0 8 5 5 10 -3 6 -2 10 4 10 5 0 12 -6 14 -12 4 -8 6 -7 6 3
1 10 -9 19 -23 21 -17 3 -23 1 -19 -8 4 -10 -1 -11 -26 -1 -23 8 -28 14 -19
24 8 10 7 13 -3 13 -9 0 -10 3 -4 8 6 4 10 14 10 22 -1 18 19 40 35 40 6 0 22
7 35 16 14 9 25 13 25 9 0 -4 8 3 19 16 16 20 21 21 35 10 9 -7 16 -10 16 -5
1 5 7 -4 14 -21 13 -29 13 -29 9 16 -4 37 -2 47 12 53 14 5 16 4 6 -7 -8 -10
-8 -21 -1 -38 10 -23 10 -23 5 4 -3 15 -1 27 5 27 5 0 10 6 10 13 0 13 21 39
27 33 2 -2 -2 -27 -8 -55z m-444 -101 c-3 -5 -12 -10 -18 -10 -7 0 -6 4 3 10
19 12 23 12 15 0z m180 -42 c-3 -12 -9 -26 -14 -31 -5 -5 -7 -16 -4 -23 3 -8
0 -14 -6 -14 -6 0 -11 -8 -11 -17 0 -15 -1 -15 -12 -1 -11 13 -22 15 -61 9
-26 -5 -50 -4 -53 1 -3 4 2 8 10 8 9 0 16 8 16 18 0 19 56 46 73 35 6 -3 7 -1
4 4 -9 14 19 37 33 28 5 -3 10 -1 10 5 0 6 4 9 9 5 6 -3 8 -15 6 -27z m535
-43 c0 -5 -5 -3 -10 5 -5 8 -10 20 -10 25 0 6 5 3 10 -5 5 -8 10 -19 10 -25z
m-710 -40 c0 -8 -13 -21 -29 -30 -16 -8 -32 -24 -36 -35 -3 -11 -11 -20 -16
-20 -5 0 -9 -7 -9 -16 0 -14 -2 -15 -17 -3 -17 13 -17 12 -2 -6 16 -20 21 -31
33 -88 5 -19 3 -26 -4 -22 -5 3 -10 -1 -10 -9 0 -8 5 -18 12 -22 7 -5 8 -3 3
6 -5 9 -4 11 3 6 7 -4 12 -20 12 -37 0 -26 -3 -29 -32 -29 -25 0 -29 3 -18 10
10 7 11 10 2 10 -7 0 -18 11 -24 25 -6 14 -17 25 -24 25 -10 0 -10 -7 2 -35
11 -28 12 -35 1 -35 -7 0 -30 -22 -52 -49 -21 -28 -41 -48 -45 -46 -3 2 -4
-12 -2 -32 4 -29 1 -34 -14 -33 -11 1 -30 1 -44 0 -24 -2 -24 -2 4 -10 16 -5
33 -7 38 -4 12 8 10 -17 -7 -72 -8 -27 -15 -59 -15 -71 0 -12 -6 -28 -12 -35
-15 -15 -15 -72 1 -111 14 -36 14 -38 -4 -31 -9 4 -15 0 -15 -9 0 -8 -9 -17
-20 -20 -11 -3 -20 -1 -20 4 0 5 -4 9 -10 9 -5 0 -7 -8 -3 -17 3 -10 -3 -6
-15 9 -24 28 -28 47 -12 49 6 1 15 3 20 4 6 1 15 3 20 4 6 0 10 10 10 20 0 14
-5 18 -20 14 -11 -3 -20 -12 -20 -19 0 -41 -57 7 -66 56 -6 26 -4 29 27 33 24
3 21 4 -11 3 -42 -1 -46 1 -62 34 -9 19 -15 41 -13 48 3 7 1 11 -4 8 -11 -7
-36 22 -28 31 4 3 -1 11 -10 18 -14 10 -8 12 31 8 50 -5 122 4 112 14 -9 9
-115 9 -109 0 4 -7 -47 -2 -51 5 -24 34 -42 76 -38 87 3 9 0 11 -9 6 -8 -5
-11 -5 -7 0 4 4 0 13 -9 20 -21 16 -13 27 42 55 38 20 50 22 66 12 10 -7 19
-8 19 -3 0 5 12 14 28 19 22 9 23 11 6 11 -11 1 -25 -4 -32 -11 -6 -6 -15 -8
-19 -4 -12 12 40 46 62 41 11 -3 14 -2 7 1 -9 4 1 15 30 31 23 14 47 25 53 26
10 2 18 8 54 37 18 15 27 17 38 9 11 -10 12 -8 7 6 -5 13 -4 16 4 11 7 -4 12
-2 12 4 0 5 16 18 36 27 35 17 36 17 55 -6 23 -28 25 -19 3 14 -14 22 -14 25
-1 31 9 3 24 1 34 -5 12 -6 25 -6 34 0 12 7 12 9 -1 10 -8 1 -19 1 -23 0 -17
-3 5 20 33 34 27 14 29 14 23 -2 -5 -16 -3 -15 14 2 12 11 21 22 21 25 0 15 4
20 17 20 8 0 15 -7 15 -15z m-350 -65 c0 -5 -15 -17 -32 -25 -28 -13 -30 -13
-13 -1 11 8 25 20 30 25 13 13 15 13 15 1z m1140 -30 c6 -11 8 -20 6 -20 -3 0
-10 9 -16 20 -6 11 -8 20 -6 20 3 0 10 -9 16 -20z m-1490 -175 c0 -2 -10 -10
-22 -16 -21 -11 -22 -11 -9 4 13 16 31 23 31 12z m-25 -155 c3 -5 1 -10 -4
-10 -6 0 -11 5 -11 10 0 6 2 10 4 10 3 0 8 -4 11 -10z m1082 -57 c29 -9 53
-20 53 -24 0 -8 -94 17 -120 32 -26 15 7 11 67 -8z m684 -45 c8 -15 8 -18 0
-14 -6 4 -16 16 -22 28 -8 15 -8 18 0 14 6 -4 16 -16 22 -28z m-606 -94 c33
-13 36 -17 24 -30 -11 -11 -22 -11 -52 -3 -33 9 -36 12 -27 29 13 24 9 24 55
4z m275 -4 c0 -5 -7 -7 -15 -4 -8 4 -12 10 -9 15 6 11 24 2 24 -11z m-122 -45
c19 -5 21 -11 16 -38 -4 -18 -6 -42 -5 -54 0 -12 -4 -25 -9 -28 -6 -3 -10 -17
-10 -31 0 -27 -9 -30 -30 -11 -8 6 -7 3 3 -9 23 -27 22 -30 -13 -47 -66 -33
-82 -31 -158 20 -40 26 -72 51 -72 55 0 3 19 9 43 13 47 8 121 30 154 47 28
14 44 58 31 82 -11 19 -13 19 50 1z m432 -42 c0 -7 -4 -13 -8 -13 -12 0 -32
46 -24 55 8 8 32 -24 32 -42z m25 -83 c3 -5 -1 -10 -10 -10 -9 0 -13 5 -10 10
3 6 8 10 10 10 2 0 7 -4 10 -10z m-1295 -51 c-6 -11 -16 -16 -22 -13 -7 4 -8
3 -4 -5 4 -6 0 -14 -8 -17 -9 -3 -16 -11 -16 -17 0 -6 11 0 25 13 41 39 58 35
53 -10 -2 -21 0 -36 4 -34 5 3 8 0 8 -5 0 -14 -107 -15 -115 -1 -3 5 -1 18 4
28 7 14 6 19 -4 19 -8 0 -11 -5 -8 -11 3 -6 -5 -1 -18 11 -26 26 -23 31 35 62
29 15 44 18 58 10 15 -8 16 -14 8 -30z m60 21 c0 -5 -7 -7 -15 -4 -8 4 -15 8
-15 10 0 2 7 4 15 4 8 0 15 -4 15 -10z m511 -32 c10 -19 9 -19 -15 -3 -14 10
-26 24 -26 32 0 13 3 13 16 3 8 -8 20 -22 25 -32z m49 -58 c25 -7 65 -15 90
-20 37 -6 28 -8 -52 -9 -90 -1 -98 1 -98 18 0 10 -7 24 -15 31 -8 7 -15 17
-15 23 0 6 10 1 23 -11 12 -11 42 -26 67 -32z m204 -15 c18 -14 17 -15 -22
-15 -54 0 -56 19 -2 29 3 0 14 -6 24 -14z m-951 -82 c-7 -2 -13 -9 -13 -14 0
-6 5 -7 10 -4 15 9 32 -43 20 -64 -5 -10 -7 -21 -5 -25 3 -3 0 -2 -7 4 -6 5
-11 23 -11 39 0 17 -3 28 -7 26 -4 -3 -6 6 -5 18 3 28 3 27 18 26 10 0 10 -2
0 -6z m75 0 c-10 -2 -18 -9 -18 -15 0 -5 6 -8 14 -5 11 5 13 0 6 -22 -4 -16
-5 -41 -2 -56 3 -21 1 -26 -9 -23 -16 5 -21 46 -8 71 6 11 6 17 -1 17 -5 0
-10 9 -10 20 0 14 6 20 23 19 16 -1 18 -2 5 -6z m88 -15 c-3 -13 -5 -42 -5
-64 -1 -28 -6 -44 -17 -48 -13 -5 -15 3 -12 50 2 31 7 59 12 62 5 3 1 9 -10
13 -16 6 -15 8 8 8 24 1 27 -2 24 -21z m71 3 c-1 -13 -7 -17 -21 -13 -13 4
-16 7 -7 10 11 4 11 6 0 13 -10 6 -8 9 8 9 15 0 21 -6 20 -19z m100 13 c-3 -3
-12 -4 -19 -1 -8 3 -5 6 6 6 11 1 17 -2 13 -5z m111 -21 c0 -12 -4 -23 -9 -23
-5 0 -9 -5 -9 -11 0 -5 5 -7 10 -4 6 4 10 -5 10 -19 0 -37 -16 -32 -25 7 -13
57 -14 61 -10 67 10 16 33 5 33 -17z m122 17 c-12 -8 -12 -10 -1 -10 10 0 11
-3 2 -13 -6 -8 -8 -17 -4 -20 3 -4 2 -7 -4 -7 -6 0 -13 14 -15 30 -4 25 -1 30
16 30 17 0 18 -2 6 -10z m110 -26 c0 -13 -6 -24 -12 -24 -9 0 -10 -2 -2 -8 14
-9 15 -60 1 -69 -6 -4 -7 -1 -2 7 6 10 4 12 -8 7 -21 -8 -21 -3 -1 18 13 12
14 19 5 28 -14 14 -15 41 -1 32 6 -3 10 1 10 10 0 9 -4 13 -10 10 -6 -3 -7 1
-4 9 9 22 24 9 24 -20z m50 26 c8 -5 12 -11 9 -14 -3 -3 -14 1 -25 9 -21 16
-8 20 16 5z m93 2 c-8 -5 -10 -25 -7 -55 2 -30 0 -47 -6 -47 -6 0 -8 -4 -5
-10 3 -5 -1 -10 -10 -10 -10 0 -13 5 -9 11 4 7 7 35 7 64 1 44 3 51 21 53 13
1 16 -2 9 -6z m59 1 c-6 -2 -10 -9 -6 -14 3 -5 0 -9 -5 -9 -12 0 -14 13 -4 23
3 4 11 7 17 6 6 0 5 -3 -2 -6z m158 -3 c0 -5 -9 -10 -20 -10 -11 0 -20 5 -20
10 0 6 9 10 20 10 11 0 20 -4 20 -10z m157 -14 c0 -8 -5 -12 -11 -10 -7 3 -10
-13 -7 -47 2 -36 0 -49 -8 -45 -12 8 -15 74 -5 100 8 20 31 21 31 2z m168 -6
c1 -8 -4 -18 -10 -22 -6 -5 -3 -8 7 -8 12 0 16 -9 15 -35 -1 -38 -21 -48 -30
-15 -3 11 -1 18 3 15 5 -3 11 -1 15 5 3 5 2 10 -3 10 -17 0 -23 32 -10 48 11
13 10 15 -4 9 -10 -3 -18 -2 -18 4 0 17 35 5 35 -11z m-1017 -52 c1 -44 0 -50
-10 -33 -12 20 -19 74 -11 88 11 18 20 -6 21 -55z m692 7 c0 -38 -3 -45 -20
-45 -17 0 -20 7 -20 45 0 38 3 45 20 45 17 0 20 -7 20 -45z m-446 -16 c2 -19
1 -25 -1 -14 -3 11 -9 24 -13 29 -5 5 -6 0 -3 -13 3 -12 1 -21 -6 -21 -14 0
-15 37 -1 45 6 4 7 12 4 18 -5 9 -4 9 5 1 6 -6 13 -26 15 -45z m141 41 c-3 -5
-12 -10 -18 -10 -7 0 -6 4 3 10 19 12 23 12 15 0z m148 -9 c-5 -13 -3 -14 7
-4 11 10 16 9 27 -5 8 -9 11 -11 7 -3 -4 9 -3 12 4 7 11 -7 5 -40 -7 -34 -3 2
-18 10 -33 17 -30 15 -38 38 -14 38 9 0 12 -7 9 -16z m-643 -31 c0 -41 -5 -46
-29 -31 -8 5 -11 16 -6 30 3 12 11 19 16 16 5 -4 9 1 9 9 0 9 2 16 5 16 3 0 5
-18 5 -40z m197 -27 c13 -10 12 -12 -6 -10 -16 1 -21 8 -20 27 0 15 3 19 6 10
3 -8 12 -20 20 -27z m305 13 c4 -19 1 -24 -13 -23 -12 1 -15 5 -9 11 14 14 13
29 -2 20 -7 -4 -8 -3 -4 4 12 19 23 14 28 -12z m198 -11 c-7 -9 -15 -13 -17
-11 -6 6 20 36 26 30 2 -2 -2 -10 -9 -19z m-610 -5 c0 -5 -5 -10 -11 -10 -5 0
-7 5 -4 10 3 6 8 10 11 10 2 0 4 -4 4 -10z m790 0 c0 -5 -7 -10 -15 -10 -8 0
-15 5 -15 10 0 6 7 10 15 10 8 0 15 -4 15 -10z m-1256 -150 c-3 -2 -9 2 -15
10 -8 13 -10 13 -20 0 -9 -13 -10 -13 -5 0 3 8 9 24 13 35 6 18 8 17 19 -10 7
-17 10 -32 8 -35z m31 30 c0 -16 -3 -30 -7 -30 -5 0 -8 14 -8 30 0 17 3 30 8
30 4 0 7 -13 7 -30z m62 10 c-3 -12 1 -24 11 -30 16 -9 16 -9 0 -10 -9 0 -20
5 -24 11 -4 8 -9 7 -15 -2 -6 -10 -9 -4 -9 19 0 26 4 32 21 32 16 0 20 -5 16
-20z m43 9 c-11 -8 -12 -12 -2 -16 15 -6 16 -33 1 -33 -5 0 -8 4 -5 9 3 5 -1
14 -9 21 -18 15 -11 30 13 30 15 0 15 -2 2 -11z m78 -13 c2 -10 0 -22 -6 -28
-6 -6 -8 0 -5 16 4 19 1 26 -10 26 -22 0 -31 -18 -17 -35 9 -11 9 -15 1 -15
-15 0 -25 26 -17 46 8 21 50 14 54 -10z m32 -6 c0 -16 -2 -30 -4 -30 -2 0 -6
14 -8 30 -3 17 -1 30 4 30 4 0 8 -13 8 -30z m71 21 c-8 -5 -12 -18 -8 -30 3
-12 1 -21 -4 -21 -5 0 -9 14 -9 30 0 22 5 30 18 30 13 0 14 -2 3 -9z m129 -13
l9 -23 7 23 c9 32 24 27 24 -8 0 -16 -4 -30 -10 -30 -5 0 -7 8 -4 18 5 16 5
16 -8 0 -13 -15 -15 -13 -30 13 -10 16 -13 29 -7 29 5 0 14 -10 19 -22z m75
-8 c0 -16 -3 -30 -7 -30 -5 0 -8 14 -8 30 0 17 3 30 8 30 4 0 7 -13 7 -30z
m35 0 c0 -16 -3 -30 -7 -30 -5 0 -8 14 -8 30 0 17 3 30 8 30 4 0 7 -13 7 -30z
m52 0 c-2 -16 -5 -30 -7 -30 -2 0 -5 14 -7 30 -3 19 0 30 7 30 7 0 10 -11 7
-30z m48 0 c0 -16 -4 -30 -9 -30 -5 0 -11 14 -13 30 -3 20 0 30 9 30 8 0 13
-12 13 -30z m64 -10 l7 -25 -15 25 c-17 28 -21 50 -7 35 5 -6 12 -21 15 -35z
m37 23 c0 -15 2 -15 9 2 10 23 12 20 14 -17 2 -21 -1 -25 -11 -16 -9 7 -13 7
-13 -1 0 -6 -3 -11 -7 -11 -5 0 -8 14 -8 30 0 31 14 43 16 13z m65 -8 c9 -37
0 -40 -13 -5 -6 17 -7 30 -2 30 5 0 11 -11 15 -25z m139 -5 c0 -16 -4 -30 -8
-30 -12 0 -20 28 -13 45 9 25 21 17 21 -15z m35 0 c0 -10 -3 -21 -7 -23 -5 -3
-8 8 -8 23 0 15 3 26 8 23 4 -2 7 -13 7 -23z m32 1 c2 -17 1 -28 -3 -26 -10 7
-18 55 -9 55 4 0 10 -13 12 -29z m41 9 c-3 -11 -7 -20 -9 -20 -2 0 -4 9 -4 20
0 11 4 20 9 20 5 0 7 -9 4 -20z m37 -10 c0 -16 -3 -30 -7 -30 -5 0 -8 14 -8
30 0 17 3 30 8 30 4 0 7 -13 7 -30z m45 0 c0 -16 -3 -30 -7 -30 -5 0 -8 14 -8
30 0 17 3 30 8 30 4 0 7 -13 7 -30z m58 18 c9 8 12 3 12 -19 0 -30 -10 -39
-18 -16 -3 9 -7 9 -18 0 -11 -9 -14 -6 -14 17 0 22 3 26 13 18 8 -7 16 -7 25
0z m50 0 c5 -16 -3 -48 -12 -48 -3 0 -6 14 -6 30 0 30 10 40 18 18z m32 -17
c0 -16 -3 -27 -7 -24 -13 7 -7 53 6 53 1 0 1 -13 1 -29z m41 15 c3 -8 1 -22
-4 -32 -8 -14 -10 -11 -14 15 -5 31 8 43 18 17z m52 -3 c-1 -10 1 -24 5 -30 5
-8 4 -13 -2 -13 -6 0 -11 5 -11 10 0 6 -5 10 -11 10 -5 0 -7 -4 -4 -10 3 -5 1
-10 -4 -10 -6 0 -11 14 -11 30 0 24 4 30 21 30 14 0 19 -6 17 -17z m162 10
c-22 -9 -30 -26 -18 -40 7 -9 7 -13 -1 -13 -18 0 -25 29 -11 45 7 8 20 15 29
14 13 0 14 -2 1 -6z m73 -45 c8 -5 7 -8 -5 -8 -9 0 -19 6 -22 13 -5 10 -7 10
-12 0 -3 -7 -10 -13 -16 -13 -6 0 -3 9 7 20 10 11 15 20 11 20 -4 0 -4 5 0 12
5 7 10 3 16 -13 5 -13 14 -27 21 -31z m28 43 c-9 -6 -10 -11 -2 -15 14 -9 14
-36 0 -36 -5 0 -8 4 -5 9 3 5 -1 14 -9 21 -18 15 -11 30 13 30 13 0 14 -2 3
-9z m41 -21 c3 -16 1 -30 -4 -30 -4 0 -8 3 -8 8 0 4 -3 17 -6 30 -4 12 -2 22
4 22 5 0 12 -13 14 -30z m91 -30 c-2 -2 -8 2 -14 10 -8 13 -10 13 -19 0 -5 -8
-10 -10 -10 -4 0 6 3 14 8 18 4 4 8 12 8 17 3 23 6 22 18 -6 7 -16 11 -32 9
-35z m29 30 c-2 -16 -6 -30 -8 -30 -2 0 -4 14 -4 30 0 17 4 30 8 30 5 0 7 -13
4 -30z"/>
<path d="M1094 1900 c0 -47 -4 -92 -10 -100 -5 -8 -10 -33 -11 -55 -1 -22 -5
-62 -7 -90 l-6 -50 13 40 c8 22 12 46 9 53 -2 6 0 12 6 12 5 0 12 13 14 30 4
24 2 27 -9 19 -9 -8 -13 -8 -13 -1 0 6 5 14 10 17 6 3 11 23 11 43 l2 37 7
-40 7 -40 2 38 c0 20 6 37 11 37 6 0 10 8 10 18 -1 16 -1 16 -14 -1 -13 -17
-15 -14 -21 25 -5 28 -4 43 4 46 6 2 11 8 11 13 0 6 -4 8 -9 4 -5 -3 -11 3
-13 12 -3 10 -4 -20 -4 -67z"/>
<path d="M1017 1933 c-9 -8 3 -77 15 -88 8 -7 9 -6 4 3 -4 7 -3 18 2 25 5 7
11 23 14 38 3 18 0 25 -13 26 -9 1 -19 -1 -22 -4z"/>
<path d="M1221 1931 c-8 -5 -20 -7 -28 -4 -7 3 -13 -2 -13 -12 0 -9 4 -14 9
-10 16 9 24 -35 9 -52 -11 -14 -11 -16 1 -8 11 6 13 4 8 -9 -4 -10 -10 -29
-13 -43 -5 -17 -9 -21 -14 -12 -5 7 -7 2 -7 -14 2 -34 11 -24 35 39 11 31 16
58 11 70 -13 33 -9 51 5 19 12 -29 13 -29 18 -7 3 12 2 20 -3 16 -5 -3 -9 1
-9 10 0 8 6 17 13 19 6 3 8 6 2 6 -5 0 -16 -3 -24 -8z"/>
<path d="M990 1885 c0 -5 5 -17 10 -25 5 -8 10 -10 10 -5 0 6 -5 17 -10 25 -5
8 -10 11 -10 5z"/>
<path d="M1294 1862 c-8 -12 -9 -24 -2 -36 7 -12 6 -22 -3 -32 -6 -8 -10 -17
-7 -19 2 -3 15 13 27 35 12 22 18 40 12 40 -5 0 -11 7 -13 15 -2 13 -5 12 -14
-3z m14 -37 c-3 -3 -9 2 -12 12 -6 14 -5 15 5 6 7 -7 10 -15 7 -18z"/>
<path d="M1261 1844 c0 -11 3 -14 6 -6 3 7 2 16 -1 19 -3 4 -6 -2 -5 -13z"/>
<path d="M1253 1784 c0 -52 -13 -76 -25 -48 -5 12 -6 7 -2 -16 3 -23 2 -30 -4
-22 -7 11 -11 10 -16 -4 -12 -32 9 -33 31 -1 26 38 35 80 24 110 -7 17 -8 13
-8 -19z"/>
<path d="M1335 1800 c-3 -5 -2 -17 3 -26 8 -15 10 -15 15 0 5 12 3 15 -5 10
-8 -5 -9 -2 -5 9 7 19 2 23 -8 7z"/>
<path d="M1319 1741 c-12 -5 -13 -10 -3 -29 l11 -23 6 28 c6 33 6 32 -14 24z"/>
<path d="M1151 1710 c-1 -21 -3 -22 -12 -10 -8 12 -9 9 -5 -12 4 -16 3 -28 -2
-28 -5 0 -9 -6 -9 -12 0 -7 -4 -21 -8 -30 -4 -10 -3 -18 2 -18 12 0 47 104 40
121 -3 8 -6 3 -6 -11z"/>
<path d="M1271 1672 c-4 -10 -6 -23 -3 -31 3 -8 0 -11 -7 -7 -6 4 -12 2 -12
-3 -3 -21 -4 -26 -12 -38 -5 -7 -5 -13 0 -13 4 0 19 17 33 38 14 20 32 42 40
49 8 7 13 13 10 13 -32 7 -41 6 -49 -8z"/>
<path d="M1000 1648 c0 -19 2 -20 10 -8 13 19 13 30 0 30 -5 0 -10 -10 -10
-22z"/>
<path d="M1181 1638 c-4 -13 -11 -34 -15 -48 -6 -23 -6 -24 6 -5 12 20 14 25
17 46 0 5 6 7 11 4 6 -3 10 -2 10 4 0 21 -21 21 -29 -1z"/>
<path d="M1343 1615 c0 -8 4 -12 9 -9 5 3 6 10 3 15 -9 13 -12 11 -12 -6z"/>
<path d="M1001 1604 c0 -11 3 -14 6 -6 3 7 2 16 -1 19 -3 4 -6 -2 -5 -13z"/>
<path d="M1420 1580 c-8 -5 -12 -12 -9 -15 4 -3 12 1 19 10 14 17 11 19 -10 5z"/>
<path d="M1360 1545 c-20 -25 -4 -29 21 -6 18 16 19 21 7 21 -9 0 -21 -7 -28
-15z"/>
<path d="M1309 1494 c-23 -25 -23 -26 -2 -15 23 12 38 29 31 37 -3 2 -15 -8
-29 -22z"/>
<path d="M1352 1454 c-14 -16 -5 -18 17 -5 7 5 9 11 5 14 -5 3 -15 -1 -22 -9z"/>
<path d="M1486 1391 c-9 -14 24 -22 46 -10 11 6 17 13 14 16 -3 3 -12 0 -21
-7 -10 -8 -15 -9 -15 -1 0 13 -17 15 -24 2z"/>
<path d="M1440 1372 c0 -5 -12 -13 -27 -19 l-28 -12 30 6 c36 7 70 33 42 33
-9 0 -17 -4 -17 -8z"/>
<path d="M1531 1338 c-65 -20 -71 -28 -28 -32 17 -2 24 1 21 9 -5 11 21 20 73
27 7 1 10 5 7 10 -3 4 -6 8 -7 7 -1 0 -31 -10 -66 -21z"/>
<path d="M1355 1330 c-3 -6 1 -7 9 -4 18 7 21 14 7 14 -6 0 -13 -4 -16 -10z"/>
<path d="M1565 1320 c-3 -5 3 -10 14 -10 12 0 21 5 21 10 0 6 -6 10 -14 10 -8
0 -18 -4 -21 -10z"/>
<path d="M1415 1294 c-25 -12 -26 -13 -5 -8 14 3 36 5 50 5 20 -1 22 1 10 9
-19 12 -19 12 -55 -6z"/>
<path d="M1600 1270 c0 -5 5 -10 11 -10 5 0 7 5 4 10 -3 6 -8 10 -11 10 -2 0
-4 -4 -4 -10z"/>
<path d="M1495 1251 c-18 -7 -17 -8 7 -13 19 -4 25 -1 21 9 -3 7 -6 13 -7 12
0 0 -10 -4 -21 -8z"/>
<path d="M1568 1243 c6 -2 18 -2 25 0 6 3 1 5 -13 5 -14 0 -19 -2 -12 -5z"/>
<path d="M1408 1233 c6 -2 18 -2 25 0 6 3 1 5 -13 5 -14 0 -19 -2 -12 -5z"/>
<path d="M1668 1203 c7 -3 16 -2 19 1 4 3 -2 6 -13 5 -11 0 -14 -3 -6 -6z"/>
<path d="M1510 1173 c0 -12 3 -14 8 -6 4 6 25 13 47 16 40 4 40 4 -7 5 -40 2
-48 -1 -48 -15z"/>
<path d="M1638 1093 c7 -3 16 -2 19 1 4 3 -2 6 -13 5 -11 0 -14 -3 -6 -6z"/>
<path d="M1421 1059 c8 -5 22 -6 32 -3 9 3 17 1 17 -5 0 -6 8 -11 18 -11 15 1
15 2 -3 13 -23 13 -86 20 -64 6z"/>
<path d="M1708 1053 c7 -3 16 -2 19 1 4 3 -2 6 -13 5 -11 0 -14 -3 -6 -6z"/>
<path d="M1424 995 c23 -18 33 -19 41 -5 3 5 0 7 -8 4 -8 -3 -18 -1 -22 5 -3
6 -12 11 -18 11 -7 0 -3 -7 7 -15z"/>
<path d="M1480 972 c0 -4 10 -13 23 -21 20 -13 21 -13 9 2 -11 13 -10 16 5 20
12 3 8 5 -9 6 -16 0 -28 -2 -28 -7z"/>
<path d="M1558 963 c7 -3 16 -2 19 1 4 3 -2 6 -13 5 -11 0 -14 -3 -6 -6z"/>
<path d="M1590 950 c-8 -5 -23 -7 -32 -4 -22 7 -24 -12 -2 -20 8 -3 25 3 36
14 23 21 22 26 -2 10z"/>
<path d="M1410 929 c0 -14 42 -21 54 -9 8 10 6 11 -13 5 -14 -4 -21 -3 -18 2
4 5 0 10 -8 10 -8 0 -15 -4 -15 -8z"/>
<path d="M1355 900 c-3 -5 -1 -10 4 -10 6 0 11 5 11 10 0 6 -2 10 -4 10 -3 0
-8 -4 -11 -10z"/>
<path d="M1483 901 c-22 -6 -22 -6 5 -21 17 -10 38 -13 57 -9 27 6 17 14 -13
10 -7 -1 -11 3 -10 10 4 15 -11 19 -39 10z"/>
<path d="M843 1823 c4 -3 1 -13 -6 -21 -10 -13 -9 -15 6 -9 10 4 23 7 29 7 5
0 3 7 -6 15 -8 8 -18 15 -22 15 -4 0 -4 -3 -1 -7z"/>
<path d="M551 1657 c2 -1 12 -9 22 -16 15 -12 17 -12 11 3 -3 9 -13 16 -22 16
-8 0 -13 -1 -11 -3z"/>
<path d="M512 1618 c2 -32 29 -63 40 -46 12 20 10 28 -7 22 -10 -4 -15 0 -15
14 0 12 -4 23 -9 27 -6 3 -9 -5 -9 -17z"/>
<path d="M623 1605 c0 -8 6 -16 14 -19 15 -6 15 -4 7 18 -8 20 -21 21 -21 1z"/>
<path d="M426 1581 c-4 -5 3 -7 14 -4 23 6 26 13 6 13 -8 0 -17 -4 -20 -9z"/>
<path d="M428 1553 c7 -3 16 -2 19 1 4 3 -2 6 -13 5 -11 0 -14 -3 -6 -6z"/>
<path d="M479 1553 c-1 -4 -1 -12 0 -17 1 -5 -5 -6 -14 -2 -10 3 -14 2 -10 -5
4 -6 13 -8 21 -5 8 3 25 1 39 -4 14 -5 25 -8 25 -7 0 8 -60 47 -61 40z"/>
<path d="M340 1539 c-12 -8 -10 -9 9 -4 15 5 21 3 17 -3 -4 -6 2 -16 11 -22
14 -9 15 -12 5 -17 -15 -6 106 -68 126 -64 6 1 12 -3 12 -9 0 -5 4 -10 8 -10
5 0 9 7 9 15 0 8 -4 12 -8 9 -4 -2 -14 3 -23 12 -9 8 -20 13 -25 9 -12 -7 -73
27 -79 44 -3 9 4 8 24 -4 l29 -17 -25 21 c-65 55 -67 56 -90 40z"/>
<path d="M328 1503 c7 -3 16 -2 19 1 4 3 -2 6 -13 5 -11 0 -14 -3 -6 -6z"/>
<path d="M530 1486 c4 -4 16 -4 26 2 16 9 14 10 -8 9 -15 -1 -23 -6 -18 -11z"/>
<path d="M315 1461 c-2 -5 8 -11 23 -14 35 -7 38 -3 7 11 -13 6 -27 7 -30 3z"/>
<path d="M265 1450 c-3 -5 1 -10 9 -10 9 0 16 5 16 10 0 6 -4 10 -9 10 -6 0
-13 -4 -16 -10z"/>
<path d="M200 1446 c0 -2 9 -6 20 -9 11 -3 18 -1 14 4 -5 9 -34 13 -34 5z"/>
<path d="M316 1425 c-3 -9 -2 -13 3 -10 5 3 12 1 16 -5 9 -15 32 -12 32 5 0 8
-4 15 -8 15 -4 0 -14 3 -22 6 -8 3 -17 -2 -21 -11z"/>
<path d="M140 1412 c0 -20 28 -25 45 -8 14 14 14 16 1 16 -8 0 -18 -5 -22 -11
-4 -8 -9 -7 -15 2 -7 11 -9 11 -9 1z"/>
<path d="M392 1400 c7 -11 16 -20 20 -20 5 0 3 9 -4 20 -7 11 -16 20 -20 20
-5 0 -3 -9 4 -20z"/>
<path d="M427 1400 c10 -11 27 -20 38 -20 17 0 15 3 -10 20 -38 25 -49 25 -28
0z"/>
<path d="M226 1401 c5 -5 23 -12 39 -16 30 -6 30 -6 -4 10 -38 17 -49 19 -35
6z"/>
<path d="M175 1380 c-19 -8 -19 -9 2 -9 12 -1 25 4 28 9 7 12 -2 12 -30 0z"/>
<path d="M217 1374 c-15 -16 19 -30 55 -24 57 11 59 21 3 13 -35 -4 -46 -3
-41 5 7 12 -6 17 -17 6z"/>
<path d="M155 1350 c3 -5 8 -10 11 -10 2 0 4 5 4 10 0 6 -5 10 -11 10 -5 0 -7
-4 -4 -10z"/>
<path d="M360 1345 c7 -8 17 -15 22 -15 6 0 5 7 -2 15 -7 8 -17 15 -22 15 -6
0 -5 -7 2 -15z"/>
<path d="M290 1340 c-22 -7 -21 -8 13 -9 20 -1 37 4 37 9 0 11 -14 11 -50 0z"/>
<path d="M410 1328 c0 -6 -12 -8 -30 -5 -16 4 -32 2 -35 -3 -7 -11 47 -12 85
-1 25 7 25 7 3 13 -13 4 -23 2 -23 -4z"/>
<path d="M185 1310 c3 -5 8 -10 11 -10 2 0 4 5 4 10 0 6 -5 10 -11 10 -5 0 -7
-4 -4 -10z"/>
<path d="M390 1260 c8 -5 24 -9 35 -9 l20 0 -20 9 c-11 5 -27 9 -35 9 -13 1
-13 0 0 -9z"/>
<path d="M378 1233 c12 -2 30 -2 40 0 9 3 -1 5 -23 4 -22 0 -30 -2 -17 -4z"/>
<path d="M281 1203 c-1 -7 -4 -12 -8 -10 -8 2 -13 -6 -13 -21 0 -4 12 -9 26
-10 20 -1 24 1 17 11 -6 6 -13 19 -16 27 -3 9 -6 10 -6 3z"/>
<path d="M310 1198 c0 -20 27 -22 70 -7 19 7 16 7 -14 3 -26 -4 -42 -1 -47 8
-7 10 -9 9 -9 -4z"/>
<path d="M398 1163 c7 -3 16 -2 19 1 4 3 -2 6 -13 5 -11 0 -14 -3 -6 -6z"/>
<path d="M410 1109 c0 -11 4 -18 10 -14 5 3 7 12 3 20 -7 21 -13 19 -13 -6z"/>
<path d="M380 1100 c0 -5 5 -10 10 -10 6 0 10 5 10 10 0 6 -4 10 -10 10 -5 0
-10 -4 -10 -10z"/>
<path d="M320 1080 c0 -13 11 -13 30 0 12 8 11 10 -7 10 -13 0 -23 -4 -23 -10z"/>
<path d="M340 1029 c0 -5 5 -7 10 -4 6 3 10 8 10 11 0 2 -4 4 -10 4 -5 0 -10
-5 -10 -11z"/>
<path d="M505 850 c-3 -5 -1 -10 4 -10 6 0 11 5 11 10 0 6 -2 10 -4 10 -3 0
-8 -4 -11 -10z"/>
<path d="M380 699 c0 -5 5 -7 10 -4 6 3 10 8 10 11 0 2 -4 4 -10 4 -5 0 -10
-5 -10 -11z"/>
<path d="M803 741 c0 -11 5 -18 9 -15 4 3 5 11 1 19 -7 21 -12 19 -10 -4z"/>
<path d="M310 539 c0 -5 5 -7 10 -4 6 3 10 8 10 11 0 2 -4 4 -10 4 -5 0 -10
-5 -10 -11z"/>
<path d="M1143 2149 c-18 -12 -33 -23 -33 -25 0 -7 58 25 65 36 9 14 5 13 -32
-11z"/>
<path d="M1336 2057 c3 -10 9 -15 12 -12 3 3 0 11 -7 18 -10 9 -11 8 -5 -6z"/>
<path d="M1350 2021 c0 -6 4 -13 10 -16 6 -3 7 1 4 9 -7 18 -14 21 -14 7z"/>
<path d="M1396 1947 c3 -10 9 -15 12 -12 3 3 0 11 -7 18 -10 9 -11 8 -5 -6z"/>
<path d="M263 1639 c-35 -22 -46 -37 -15 -20 22 13 58 40 52 41 -3 0 -20 -10
-37 -21z"/>
<path d="M153 1577 c-69 -42 -81 -57 -18 -22 44 25 88 56 75 54 -3 0 -28 -15
-57 -32z"/>
<path d="M1617 1565 c9 -19 18 -33 21 -31 4 5 -26 66 -33 66 -3 0 3 -16 12
-35z"/>
<path d="M1709 1402 c6 -12 16 -24 22 -28 8 -4 8 -1 0 14 -6 12 -16 24 -22 28
-8 4 -8 1 0 -14z"/>
<path d="M1740 1351 c0 -5 5 -13 10 -16 6 -3 10 -2 10 4 0 5 -4 13 -10 16 -5
3 -10 2 -10 -4z"/>
<path d="M240 961 c0 -6 4 -13 10 -16 6 -3 7 1 4 9 -7 18 -14 21 -14 7z"/>
<path d="M2146 707 c3 -10 9 -15 12 -12 3 3 0 11 -7 18 -10 9 -11 8 -5 -6z"/>
<path d="M2172 663 c24 -49 32 -63 39 -63 5 0 -1 16 -12 35 -12 19 -23 35 -26
35 -2 0 -3 -3 -1 -7z"/>
<path d="M1373 383 c164 -2 430 -2 590 0 161 1 27 2 -298 2 -324 0 -456 -1
-292 -2z"/>
<path d="M908 284 c-38 -20 -36 -28 2 -9 17 9 30 18 30 20 0 7 -1 6 -32 -11z"/>
<path d="M810 230 c-8 -5 -12 -11 -10 -14 3 -2 14 2 24 10 22 15 10 19 -14 4z"/>
<path d="M690 182 c6 -13 14 -21 18 -18 3 4 -2 14 -12 24 -18 16 -18 16 -6 -6z"/>
</g>
</svg>
